# xmcd
# Track frame offsets:
# 150
# 16413
# 34173
# 52113
# 68282
# 82560
# 97107
# 112156
# 126809
# 141444
# 155729
# 171477
# 190215
#
# Disc length: 2722 seconds
# Revision: 0
# Processed by: cddbd v1.5.2PL0 Copyright (c) Steve Scherf et al.
# Submitted via: VisiTrax 2.11.1.266 - For more info visit www.synapsa.com
#
DISCID=b40aa00d
DTITLE=Meier. Markus - A Different Land
DYEAR=2010
DGENRE=Country
TTITLE0=A Different Land
TTITLE1=Hillbilly Town
TTITLE2=Into Your Flame
TTITLE3=Rope A Cowgirl
TTITLE4=Boys Still Ride The Streets
TTITLE5=One Of These days
TTITLE6=Backroad Traction
TTITLE7=Jayme's Song
TTITLE8=Roaring Days, The
TTITLE9=Willow Tree
TTITLE10=Haystack
TTITLE11=My Patch Of dirt
TTITLE12=This old dog
EXTD=
EXTT0=
EXTT1=
EXTT2=
EXTT3=
EXTT4=
EXTT5=
EXTT6=
EXTT7=
EXTT8=
EXTT9=
EXTT10=
EXTT11=
EXTT12=
PLAYORDER=
